<svg xmlns="http://www.w3.org/2000/svg" width="299.988" height="430.111" viewBox="0 0 468 671">
  <defs>
    <style>
      .cls-1 {
        fill: #f44336;
      }

      .cls-1, .cls-2, .cls-3, .cls-4 {
        fill-rule: evenodd;
      }

      .cls-1, .cls-2, .cls-4 {
        opacity: 0.7;
      }

      .cls-2 {
        fill: #2196f3;
      }

      .cls-4 {
        fill: #424242;
      }
    </style>
  </defs>
  <path id="Polygone_1" data-name="Polygone 1" class="cls-1" d="M466.934,354.653l-149.171,85.1L167.709,353.124l-0.883-171.738L316,96.282l150.054,86.634Z"/>
  <path id="Polygone_1-2" data-name="Polygone 1" class="cls-2" d="M301.434,259.859l-149.171,85.1L2.209,258.33,1.326,86.592,150.5,1.488,300.551,88.121Z"/>
  <path id="REPLACE_THIS_LOGO_WITH_YOUR" data-name="REPLACE THIS LOGO WITH YOUR" class="cls-3" d="M62.026,610.333h5.859V574.347H62.026v35.986Zm16.211-14.16a10.828,10.828,0,0,0,4.883-4.053,11.778,11.778,0,0,0,1.807-6.64,9.813,9.813,0,0,0-1.1-4.663,11.494,11.494,0,0,0-2.881-3.54,12.293,12.293,0,0,0-4.028-2.2,14.575,14.575,0,0,0-4.541-.732h-2.49v4.443H72.28a7.9,7.9,0,0,1,3.613.708,5.922,5.922,0,0,1,2.124,1.758,5.834,5.834,0,0,1,1,2.2,9.912,9.912,0,0,1,.244,2.027,10.954,10.954,0,0,1-.537,3.686,5.859,5.859,0,0,1-1.416,2.32,5.325,5.325,0,0,1-1.953,1.2,6.629,6.629,0,0,1-2.148.366h-3.32v4.3h2.734a4.023,4.023,0,0,0,.513-0.024,2.3,2.3,0,0,1,.317-0.025l6.787,13.037h6.2Zm16.26,14.16h5.957V574.347H94.5v35.986Zm21-20.215H102.455v4h13.038v-4Zm-13.038,20.215h14.551V605.89H102.455v4.443Zm0-35.986v4.443h14.551v-4.443H102.455Zm22.51,35.986h5.86V574.347h-5.86v35.986Zm7.861-35.986v4.443h2.393a7.893,7.893,0,0,1,3.613.708,5.922,5.922,0,0,1,2.124,1.758,5.819,5.819,0,0,1,1,2.2,9.876,9.876,0,0,1,.244,2.027,10.951,10.951,0,0,1-.537,3.686,5.854,5.854,0,0,1-1.416,2.32,5.37,5.37,0,0,1-1.928,1.2,6.422,6.422,0,0,1-2.124.366h-3.37v4.3h2.344a15.4,15.4,0,0,0,5.176-.83,11.594,11.594,0,0,0,4-2.344,10.391,10.391,0,0,0,2.588-3.735,12.753,12.753,0,0,0,.928-4.956,9.818,9.818,0,0,0-1.1-4.663,11.487,11.487,0,0,0-2.881-3.54,12.3,12.3,0,0,0-4.028-2.2,14.58,14.58,0,0,0-4.541-.732h-2.491Zm21.778,0v35.986h22.51V605.89H160.561V574.347H154.6Zm45.459,0.049h-5.811l-12.6,35.937h6.1l9.424-26.953,9.326,26.953h6.055Zm-6.2,24.512-1.368,3.955h9.327l-1.416-3.955h-6.543ZM244.5,577.667a13.565,13.565,0,0,0-9.179-3.857v4.834a7.13,7.13,0,0,1,2.734.732,8.038,8.038,0,0,1,2.393,1.9Zm-9.179,32.91a14.727,14.727,0,0,0,5.029-1.123,13.45,13.45,0,0,0,4.15-2.783l-4.052-3.564a7.645,7.645,0,0,1-2.368,1.855,8,8,0,0,1-2.759.781v4.834ZM220.546,599.86a16.916,16.916,0,0,0,2.905,5.639,13.26,13.26,0,0,0,4.371,3.565,14.1,14.1,0,0,0,5.493,1.465v-4.786a7.488,7.488,0,0,1-3-1.074,7.962,7.962,0,0,1-2.515-2.539,13.547,13.547,0,0,1-1.684-4.1,26.234,26.234,0,0,1,0-11.7,12.909,12.909,0,0,1,1.684-4.077,7.979,7.979,0,0,1,2.49-2.466,8.2,8.2,0,0,1,3.028-1.1V573.81a14.725,14.725,0,0,0-5.493,1.514,13.269,13.269,0,0,0-4.371,3.564,16.965,16.965,0,0,0-2.905,5.615A28.6,28.6,0,0,0,220.546,599.86Zm32.5,10.473H259V574.347h-5.957v35.986Zm21-20.215H261v4h13.037v-4ZM261,610.333h14.551V605.89H261v4.443Zm0-35.986v4.443h14.551v-4.443H261Zm33.936,0v4h10.742v31.982h5.908V578.351h10.742v-4H294.936Zm56.006,0v15.771H337.368v4h13.574v16.211H356.8V574.347h-5.859Zm-21.533,35.986h5.957V574.347h-5.957v35.986Zm42.529-35.986h-5.957v35.986h5.957V574.347Zm25.83,5.078q0.243-.439.586-1.1t0.732-1.416q0.39-.756.684-1.391a10.051,10.051,0,0,0-3.589-1.294,27.275,27.275,0,0,0-4.37-.464v4.932a12.057,12.057,0,0,1,2.49.049,9.1,9.1,0,0,1,1.611.366,3.9,3.9,0,0,1,.977.464,2.842,2.842,0,0,0,.586.341A4.184,4.184,0,0,0,397.768,579.425Zm-16.284,8.252a10.568,10.568,0,0,0,2.173,2.832,15.273,15.273,0,0,0,2.929,2.124q1.611,0.9,3.223,1.685v-5.567a9.743,9.743,0,0,1-2.588-2.05,4.5,4.5,0,0,1-1.025-3.077,4.445,4.445,0,0,1,1.025-2.71,5.408,5.408,0,0,1,2.588-1.879v-5.127a12.585,12.585,0,0,0-3.54,1,9.342,9.342,0,0,0-2.93,2.05,9.932,9.932,0,0,0-1.977,3,9.7,9.7,0,0,0-.733,3.858A8.126,8.126,0,0,0,381.484,587.677Zm-1.1,20.264a7.718,7.718,0,0,0,1.978,1.245,13.163,13.163,0,0,0,2.417.806,19.716,19.716,0,0,0,2.514.415q1.245,0.12,2.417.122h0.1V605.89h-0.147a12.3,12.3,0,0,1-2.1-.195,22.084,22.084,0,0,1-2.246-.513q-1.124-.317-2.173-0.684a10.575,10.575,0,0,1-1.734-.756Zm11.426-12.5a12.948,12.948,0,0,1,2.881,2.1,3.844,3.844,0,0,1,1.123,2.832q0,4.347-4,5.323v4.687a11.754,11.754,0,0,0,4-1.221,10.4,10.4,0,0,0,2.954-2.27,10.061,10.061,0,0,0,1.855-3,9.97,9.97,0,0,0-.219-7.666,9.753,9.753,0,0,0-2.246-2.9,14.042,14.042,0,0,0-3.052-2.027q-1.685-.83-3.3-1.562v5.713Zm-377,38.906v35.986h22.51V665.89H20.766V634.347H14.809Zm28.784,25.537a16.912,16.912,0,0,0,2.93,5.689,12.9,12.9,0,0,0,4.468,3.564,14.968,14.968,0,0,0,5.566,1.44v-4.834a7.369,7.369,0,0,1-3.076-1,7.846,7.846,0,0,1-2.564-2.515,13.557,13.557,0,0,1-1.733-4.126,25.98,25.98,0,0,1,0-11.841,13.277,13.277,0,0,1,1.709-4.1,7.529,7.529,0,0,1,2.539-2.442,8.228,8.228,0,0,1,3.125-1.025V633.81a14.851,14.851,0,0,0-5.591,1.44,12.974,12.974,0,0,0-4.443,3.565,16.945,16.945,0,0,0-2.93,5.664A28.782,28.782,0,0,0,43.593,659.884Zm14.917-21.24a7.385,7.385,0,0,1,3.076,1,7.929,7.929,0,0,1,2.563,2.49,13.259,13.259,0,0,1,1.733,4.1,26.084,26.084,0,0,1,0,11.865,13.657,13.657,0,0,1-1.709,4.1,7.694,7.694,0,0,1-2.539,2.491,7.971,7.971,0,0,1-3.125,1.049v4.834a14.654,14.654,0,0,0,5.566-1.44,13.054,13.054,0,0,0,4.419-3.564,17.268,17.268,0,0,0,2.954-5.689,28.15,28.15,0,0,0,0-15.4,17.306,17.306,0,0,0-2.954-5.664,13.256,13.256,0,0,0-4.443-3.589,13.9,13.9,0,0,0-5.542-1.416v4.834Zm46.631-.977a13.3,13.3,0,0,0-4.541-2.929,15.107,15.107,0,0,0-5.469-.977H95.082V638.6h0.2a8.01,8.01,0,0,1,3.125.635,6.99,6.99,0,0,1,2.685,2.051ZM81.118,659.616a17.732,17.732,0,0,0,2.686,5.542,13.022,13.022,0,0,0,4.1,3.637,13.928,13.928,0,0,0,5.176,1.685v-4.444a7.106,7.106,0,0,1-2.71-1.416,9.321,9.321,0,0,1-2.2-2.758,15.677,15.677,0,0,1-1.489-4.126,27.483,27.483,0,0,1-.586-5.567,26.357,26.357,0,0,1,.586-5.493,14.22,14.22,0,0,1,1.489-3.955,8.4,8.4,0,0,1,2.2-2.563,7.934,7.934,0,0,1,2.71-1.319v-4.883a14.209,14.209,0,0,0-5.176,1.661,12.862,12.862,0,0,0-4.1,3.588,17.434,17.434,0,0,0-2.686,5.518A28.881,28.881,0,0,0,81.118,659.616Zm13.965-7.837v4h6.1v8.886a2.462,2.462,0,0,1-1.2.83,10.78,10.78,0,0,1-1.709.464,17.009,17.009,0,0,1-1.758.244q-0.855.073-1.44,0.074v4.3h0.049a21.944,21.944,0,0,0,3.247-.244,15.114,15.114,0,0,0,3.174-.83,15.442,15.442,0,0,0,2.93-1.489A10.526,10.526,0,0,0,107,665.7V651.779H95.082Zm20.679,8.105a16.911,16.911,0,0,0,2.93,5.689,12.9,12.9,0,0,0,4.468,3.564,14.966,14.966,0,0,0,5.566,1.44v-4.834a7.366,7.366,0,0,1-3.076-1,7.849,7.849,0,0,1-2.564-2.515,13.574,13.574,0,0,1-1.733-4.126,25.965,25.965,0,0,1,0-11.841,13.269,13.269,0,0,1,1.709-4.1,7.529,7.529,0,0,1,2.539-2.442,8.226,8.226,0,0,1,3.125-1.025V633.81a14.85,14.85,0,0,0-5.591,1.44,12.975,12.975,0,0,0-4.443,3.565,16.943,16.943,0,0,0-2.93,5.664A28.777,28.777,0,0,0,115.761,659.884Zm14.917-21.24a7.382,7.382,0,0,1,3.076,1,7.931,7.931,0,0,1,2.564,2.49,13.261,13.261,0,0,1,1.733,4.1,26.069,26.069,0,0,1,0,11.865,13.637,13.637,0,0,1-1.709,4.1,7.687,7.687,0,0,1-2.539,2.491,7.975,7.975,0,0,1-3.125,1.049v4.834a14.648,14.648,0,0,0,5.566-1.44,13.042,13.042,0,0,0,4.419-3.564,17.277,17.277,0,0,0,2.955-5.689,28.157,28.157,0,0,0,0-15.4,17.314,17.314,0,0,0-2.955-5.664,13.25,13.25,0,0,0-4.443-3.589,13.9,13.9,0,0,0-5.542-1.416v4.834Zm41.357-4.3H165.4l9.131,36.182h7.666l5.322-23.145V634.347h-2.3L178.383,665.4ZM198.207,665.4l-6.347-31.055h-2.344v13.965l4.883,22.217h7.617l9.717-36.182h-6.641Zm27.539-31.055h-5.957v35.986h5.957V634.347Zm6.983,0v4h10.742v31.982h5.908V638.351h10.742v-4H232.729Zm56.006,0v15.771H275.16v4h13.575v16.211h5.859V634.347h-5.859ZM267.2,670.333h5.958V634.347H267.2v35.986Zm58.155-12.011v12.011h5.957V655.685l10.693-21.338h-6.689ZM315.2,634.347l9.472,20.41,2.637-6.4-5.42-14.014H315.2Zm34.155,25.537a16.893,16.893,0,0,0,2.93,5.689,12.9,12.9,0,0,0,4.467,3.564,14.971,14.971,0,0,0,5.567,1.44v-4.834a7.362,7.362,0,0,1-3.076-1,7.839,7.839,0,0,1-2.564-2.515,13.549,13.549,0,0,1-1.733-4.126,25.965,25.965,0,0,1,0-11.841,13.245,13.245,0,0,1,1.709-4.1,7.52,7.52,0,0,1,2.539-2.442,8.226,8.226,0,0,1,3.125-1.025V633.81a14.85,14.85,0,0,0-5.591,1.44,12.965,12.965,0,0,0-4.443,3.565,16.925,16.925,0,0,0-2.93,5.664A28.777,28.777,0,0,0,349.355,659.884Zm14.917-21.24a7.387,7.387,0,0,1,3.076,1,7.919,7.919,0,0,1,2.563,2.49,13.262,13.262,0,0,1,1.734,4.1,26.106,26.106,0,0,1,0,11.865,13.662,13.662,0,0,1-1.709,4.1,7.705,7.705,0,0,1-2.539,2.491,7.975,7.975,0,0,1-3.125,1.049v4.834a14.652,14.652,0,0,0,5.566-1.44,13.052,13.052,0,0,0,4.419-3.564,17.257,17.257,0,0,0,2.954-5.689,28.157,28.157,0,0,0,0-15.4,17.294,17.294,0,0,0-2.954-5.664,13.25,13.25,0,0,0-4.443-3.589,13.9,13.9,0,0,0-5.542-1.416v4.834Zm27.734-4.3h-5.957v17.822a29.109,29.109,0,0,0,.928,7.715,17.807,17.807,0,0,0,2.588,5.689,11.378,11.378,0,0,0,4.077,3.564,13.586,13.586,0,0,0,5.395,1.44v-4.834a6.345,6.345,0,0,1-2.9-.976,6.774,6.774,0,0,1-2.222-2.515,14.447,14.447,0,0,1-1.416-4.3,35.392,35.392,0,0,1-.488-6.372V634.347Zm16.113,0v17.236a34.008,34.008,0,0,1-.512,6.421,14.576,14.576,0,0,1-1.441,4.273,6.615,6.615,0,0,1-2.221,2.466,7.006,7.006,0,0,1-2.906,1v4.834a13.4,13.4,0,0,0,5.371-1.44,11.663,11.663,0,0,0,4.078-3.564,17.51,17.51,0,0,0,2.612-5.689,29.151,29.151,0,0,0,.928-7.715V634.347h-5.909Zm14.307,35.986h5.859V634.347h-5.859v35.986Zm16.211-14.16a10.828,10.828,0,0,0,4.883-4.053,11.777,11.777,0,0,0,1.806-6.64,9.817,9.817,0,0,0-1.1-4.663,11.5,11.5,0,0,0-2.881-3.54,12.3,12.3,0,0,0-4.028-2.2,14.58,14.58,0,0,0-4.541-.732h-2.491v4.443h2.393a7.893,7.893,0,0,1,3.613.708,5.922,5.922,0,0,1,2.124,1.758,5.819,5.819,0,0,1,1,2.2,9.876,9.876,0,0,1,.244,2.027,10.951,10.951,0,0,1-.537,3.686,5.854,5.854,0,0,1-1.416,2.32,5.322,5.322,0,0,1-1.953,1.2,6.628,6.628,0,0,1-2.148.366h-3.321v4.3h2.735a4.039,4.039,0,0,0,.513-0.024,2.281,2.281,0,0,1,.317-0.025l6.787,13.037h6.2Z"/>
  <path id="Polygone_1-3" data-name="Polygone 1" class="cls-4" d="M302.934,448.314l-149.171,85.1L3.709,446.784,2.826,275.046,152,189.942l150.054,86.634Z"/>
</svg>
